<svg aria-hidden="true" style="position: absolute; width: 0; height: 0; overflow: hidden;" version="1.1" xmlns="http://www.w3.org/2000/svg" xmlns:xlink="http://www.w3.org/1999/xlink">
  <defs>
    <symbol id="icon-maestro" viewBox="0 0 41 32">
      <path fill="#b1b1b1" style="fill: var(--color1, #b1b1b1)" d="M26.981 28.997v-0.668h-1.188v-1.020h-0.736v1.020h-0.68v0.668h0.68v1.53c0 0.781 0.301 1.245 1.163 1.245 0.322 0.001 0.638-0.089 0.911-0.26l-0.21-0.626c-0.195 0.117-0.417 0.182-0.645 0.19-0.364 0-0.484-0.211-0.484-0.563v-1.516h1.188zM32.724 28.385c0.213 0.086 0.407 0.212 0.571 0.373 0.162 0.159 0.291 0.349 0.379 0.559 0.183 0.451 0.183 0.956 0 1.407-0.088 0.21-0.216 0.4-0.379 0.559-0.164 0.161-0.358 0.287-0.571 0.373-0.462 0.18-0.975 0.18-1.437 0-0.212-0.085-0.405-0.212-0.568-0.373-0.161-0.16-0.288-0.35-0.375-0.559-0.183-0.451-0.183-0.956 0-1.407 0.087-0.209 0.214-0.399 0.375-0.559 0.163-0.161 0.356-0.287 0.568-0.373 0.231-0.096 0.479-0.145 0.729-0.144l0.007 0.011c0.24-0.001 0.478 0.045 0.701 0.134zM12.351 29.577c0.025-0.358-0.105-0.709-0.357-0.965s-0.6-0.389-0.957-0.368c-0.472-0.031-0.923 0.198-1.177 0.598-0.232-0.388-0.657-0.617-1.107-0.598-0.392-0.020-0.766 0.17-0.981 0.499v-0.415h-0.729v3.358h0.736v-1.86c-0.033-0.233 0.040-0.469 0.199-0.642s0.387-0.265 0.621-0.252c0.484 0 0.729 0.317 0.729 0.886v1.867h0.736v-1.86c-0.030-0.233 0.043-0.466 0.202-0.639s0.385-0.266 0.618-0.254c0.498 0 0.736 0.317 0.736 0.886v1.867h0.732v-2.11zM16.451 28.332h-0.736v0.408c-0.251-0.325-0.642-0.508-1.051-0.492-0.968 0-1.752 0.787-1.752 1.758s0.784 1.758 1.752 1.758c0.409 0.016 0.8-0.168 1.051-0.492v0.408h0.729l0.007-1.67v-1.677zM13.742 30.009c0.032-0.552 0.498-0.977 1.049-0.956s0.984 0.479 0.975 1.032c-0.009 0.553-0.457 0.997-1.007 1-0.282 0.007-0.554-0.106-0.749-0.311s-0.294-0.483-0.275-0.765h0.007zM32.023 28.954c-0.143-0.002-0.285 0.024-0.417 0.077-0.125 0.050-0.238 0.126-0.333 0.221-0.097 0.101-0.172 0.221-0.221 0.352-0.107 0.281-0.107 0.591 0 0.872 0.049 0.131 0.124 0.251 0.221 0.352 0.095 0.096 0.208 0.171 0.333 0.221 0.267 0.105 0.563 0.105 0.831 0 0.131-0.049 0.25-0.124 0.35-0.221 0.097-0.101 0.172-0.221 0.221-0.352 0.107-0.281 0.107-0.591 0-0.872-0.049-0.131-0.124-0.251-0.221-0.352-0.1-0.098-0.219-0.173-0.35-0.221-0.132-0.061-0.275-0.094-0.42-0.099l0.007 0.021zM18.823 28.251c-0.968 0.014-1.741 0.812-1.728 1.783s0.809 1.747 1.777 1.734c0.499 0.017 0.987-0.151 1.37-0.471l-0.35-0.542c-0.277 0.223-0.619 0.346-0.974 0.352-0.501 0.043-0.945-0.322-1.002-0.823h2.485c0.011-0.088 0.011-0.176 0.011-0.274 0-1.055-0.652-1.758-1.587-1.758zM17.919 29.714c0.028-0.464 0.416-0.823 0.88-0.812 0.22-0.005 0.433 0.079 0.593 0.232s0.251 0.363 0.256 0.584l-1.728-0.003zM22.425 28.898c-0.399 0-0.638 0.148-0.638 0.394s0.252 0.288 0.568 0.331l0.35 0.049c0.729 0.105 1.17 0.415 1.17 1.006s-0.561 1.097-1.524 1.097c-0.517 0.014-1.024-0.139-1.447-0.436l0.35-0.57c0.322 0.239 0.714 0.363 1.114 0.352 0.498 0 0.764-0.148 0.764-0.408 0-0.19-0.189-0.295-0.589-0.352l-0.35-0.049c-0.75-0.105-1.156-0.443-1.156-0.992 0-0.668 0.547-1.076 1.402-1.076 0.479-0.016 0.952 0.106 1.363 0.352l-0.326 0.591c-0.32-0.185-0.682-0.284-1.051-0.288zM30.019 28.335l-0.224 0.703c-0.145-0.058-0.3-0.087-0.456-0.084-0.477 0-0.701 0.309-0.701 0.865v1.881h-0.729v-3.358h0.722v0.408c0.182-0.314 0.521-0.503 0.883-0.492l-0.014-0.014c0.177 0.001 0.352 0.032 0.519 0.091zM34.539 31.198h-0.017c-0.040 0.002-0.079 0.010-0.116 0.025-0.040 0.017-0.077 0.040-0.109 0.070s-0.056 0.066-0.074 0.105c-0.035 0.083-0.035 0.177 0 0.26 0.057 0.123 0.18 0.203 0.315 0.204 0.046 0 0.091-0.009 0.133-0.028 0.040-0.017 0.077-0.040 0.109-0.070s0.056-0.066 0.074-0.105c0.036-0.083 0.036-0.177 0-0.26-0.018-0.039-0.043-0.075-0.074-0.105s-0.068-0.054-0.109-0.070c-0.042-0.017-0.088-0.025-0.133-0.025zM34.641 31.771c-0.032 0.014-0.067 0.021-0.102 0.021v-0.014c-0.070 0-0.137-0.027-0.186-0.077-0.091-0.099-0.091-0.252 0-0.352 0.024-0.024 0.053-0.043 0.084-0.056s0.067-0.021 0.102-0.021c0.035-0 0.070 0.007 0.102 0.021 0.078 0.034 0.135 0.105 0.151 0.19s-0.010 0.171-0.071 0.232c-0.023 0.024-0.050 0.043-0.081 0.056zM34.561 31.374l-0.147-0.011v0.323h0.067v-0.116h0.032l0.095 0.116h0.081l-0.102-0.116c0.027-0.002 0.053-0.013 0.074-0.032 0.017-0.017 0.026-0.040 0.025-0.063 0.002-0.028-0.010-0.056-0.032-0.074-0.026-0.020-0.058-0.030-0.091-0.028zM34.483 31.518v-0.084l0.077 0.021c0.014-0.004 0.028-0.004 0.042 0 0.005 0.010 0.005 0.022 0 0.032 0.005 0.010 0.005 0.022 0 0.032-0.014 0.004-0.028 0.004-0.042 0h-0.077z"></path>
      <path fill="#9e9e9e" style="fill: var(--color2, #9e9e9e)" d="M14.891 2.707h11.039v19.907h-11.039v-19.907z"></path>
      <path fill="#818181" style="fill: var(--color3, #818181)" d="M15.592 12.663c-0.004-3.885 1.773-7.556 4.818-9.955-5.172-4.079-12.6-3.485-17.063 1.365s-4.463 12.327 0 17.177c4.463 4.85 11.891 5.444 17.063 1.365-3.045-2.398-4.821-6.068-4.818-9.952z"></path>
      <path fill="#00a1df" style="fill: var(--color4, #00a1df)" d="M40.427 20.012v0.972l-0.091 0.007v-0.736l-0.137 0.632h-0.095l-0.137-0.632v0.729h-0.091v-0.972h0.13l0.147 0.695 0.147-0.695h0.126zM39.617 20.206v0.778l-0.088 0.028v-0.805h-0.165v-0.167h0.417v0.167h-0.165z"></path>
      <path fill="#b1b1b1" style="fill: var(--color1, #b1b1b1)" d="M40.819 12.663c-0.001 4.846-2.759 9.265-7.102 11.383s-9.51 1.562-13.307-1.432c3.043-2.4 4.82-6.069 4.82-9.953s-1.777-7.553-4.82-9.953c3.797-2.996 8.965-3.553 13.31-1.435s7.102 6.539 7.102 11.386l-0.004 0.004z"></path>
    </symbol>
    <symbol id="icon-google-pay" viewBox="0 0 29 32">
      <path d="M21.824 20.663l-4.869-4.869 4.764-4.764 5.358 3.082c0.835 0.477 1.266 1.090 1.291 1.706 0.009-0.048 0.016-0.097 0.021-0.147 0 0.077-0.007 0.154-0.020 0.231-0.012 0.627-0.442 1.253-1.292 1.738l-5.253 3.022zM20.296 21.456l-4.501-4.501-14.608 14.608c0.528 0.18 1.189 0.097 1.93-0.302l17.179-9.805zM0.121 30.308l14.514-14.514-14.494-14.494c-0.088 0.27-0.14 0.575-0.14 0.915v27.241c0 0.314 0.044 0.598 0.121 0.852zM1.249 0.088c0.517-0.153 1.156-0.062 1.868 0.321l17.126 9.775-4.449 4.449-14.546-14.546z"></path>
    </symbol>
    <symbol id="icon-instagram" viewBox="0 0 32 32">
      <path d="M16 3.52c4 0 4.48 0 6.080 0.16 1.44 0 2.24 0.32 2.88 0.48 0.64 0.32 1.28 0.64 1.76 1.12s0.8 0.96 1.12 1.76c0.16 0.48 0.48 1.28 0.48 2.88s0.16 2.080 0.16 6.080c0 4 0 4.48-0.16 6.080 0 1.44-0.32 2.24-0.48 2.88-0.32 0.64-0.64 1.28-1.12 1.76s-0.96 0.8-1.76 1.12c-0.48 0.16-1.28 0.48-2.88 0.48s-2.080 0.16-6.080 0.16c-4 0-4.48 0-6.080-0.16-1.44 0-2.24-0.32-2.88-0.48-0.64-0.32-1.28-0.64-1.76-1.12s-0.8-0.96-1.12-1.76c-0.16-0.48-0.48-1.28-0.48-2.88s-0.16-2.080-0.16-6.080c0-4 0-4.48 0.16-6.080 0-1.44 0.32-2.24 0.48-2.88 0.32-0.64 0.64-1.28 1.12-1.76s0.96-0.8 1.76-1.12c0.48-0.16 1.28-0.48 2.72-0.48 1.6-0.16 2.080-0.16 6.24-0.16zM16 0.8c-4.16 0-4.64 0-6.24 0.16-1.6 0-2.72 0.32-3.68 0.64-1.12 0.32-1.92 0.96-2.72 1.76s-1.44 1.6-1.76 2.72c-0.32 0.96-0.64 2.080-0.64 3.68-0.16 1.6-0.16 2.080-0.16 6.24s0 4.64 0.16 6.24c0 1.6 0.32 2.72 0.64 3.68s0.96 1.92 1.76 2.72c0.8 0.8 1.76 1.44 2.72 1.76s2.080 0.64 3.68 0.64c1.6 0 2.080 0.16 6.24 0.16s4.64 0 6.24-0.16c1.6 0 2.72-0.32 3.68-0.64s1.92-0.96 2.72-1.76c0.8-0.8 1.44-1.76 1.76-2.72s0.64-2.080 0.64-3.68c0-1.6 0.16-2.080 0.16-6.24s0-4.64-0.16-6.24c0-1.6-0.32-2.72-0.64-3.68s-0.96-1.92-1.76-2.72c-0.8-0.8-1.76-1.44-2.72-1.76s-2.080-0.64-3.68-0.64c-1.6-0.16-2.24-0.16-6.24-0.16z"></path>
      <path d="M16 8.159c-4.32 0-7.84 3.52-7.84 7.84s3.52 7.84 7.84 7.84c4.32 0 7.84-3.52 7.84-7.84s-3.52-7.84-7.84-7.84zM16 20.959c-2.72 0-5.12-2.24-5.12-5.12 0-2.72 2.24-5.12 5.12-5.12s5.12 2.24 5.12 5.12c-0.16 2.88-2.4 5.12-5.12 5.12z"></path>
      <path d="M24 9.601c0.972 0 1.76-0.788 1.76-1.76s-0.788-1.76-1.76-1.76c-0.972 0-1.76 0.788-1.76 1.76s0.788 1.76 1.76 1.76z"></path>
    </symbol>
    <symbol id="icon-positive" viewBox="0 0 31 32">
      <path stroke-linejoin="round" stroke-linecap="round" stroke-miterlimit="4" stroke-width="1.9394" d="M15.665 22.756v-13.368"></path>
      <path stroke-linejoin="round" stroke-linecap="round" stroke-miterlimit="4" stroke-width="1.9394" d="M10.443 14.402l5.222-5.222 5.222 5.222"></path>
      <path stroke-linejoin="miter" stroke-linecap="butt" stroke-miterlimit="4" stroke-width="0.9697" d="M0.485 15.968c0-8.301 6.729-15.030 15.030-15.030s15.030 6.729 15.030 15.030c0 8.301-6.729 15.030-15.030 15.030s-15.030-6.729-15.030-15.030z"></path>
    </symbol>
    <symbol id="icon-negative" viewBox="0 0 31 32">
      <path stroke-linejoin="round" stroke-linecap="round" stroke-miterlimit="4" stroke-width="1.9394" d="M15.665 9.18v13.368"></path>
      <path stroke-linejoin="round" stroke-linecap="round" stroke-miterlimit="4" stroke-width="1.9394" d="M10.443 17.534l5.222 5.222 5.222-5.222"></path>
      <path stroke-linejoin="miter" stroke-linecap="butt" stroke-miterlimit="4" stroke-width="0.9697" d="M0.485 15.968c0-8.301 6.729-15.030 15.030-15.030s15.030 6.729 15.030 15.030c0 8.301-6.729 15.030-15.030 15.030s-15.030-6.729-15.030-15.030z"></path>
    </symbol>
    <symbol id="icon-positive1" viewBox="0 0 31 32">
      <path stroke-linejoin="round" stroke-linecap="round" stroke-miterlimit="4" stroke-width="1.9394" d="M15.665 22.756v-13.368"></path>
      <path stroke-linejoin="round" stroke-linecap="round" stroke-miterlimit="4" stroke-width="1.9394" d="M10.443 14.402l5.222-5.222 5.222 5.222"></path>
      <path stroke-linejoin="miter" stroke-linecap="butt" stroke-miterlimit="4" stroke-width="0.9697" d="M0.485 15.968c0-8.301 6.729-15.030 15.030-15.030s15.030 6.729 15.030 15.030c0 8.301-6.729 15.030-15.030 15.030s-15.030-6.729-15.030-15.030z"></path>
    </symbol>
    <symbol id="icon-likedin" viewBox="0 0 36 32">
      <path d="M23.731 15.565c2.311 0 3.556 1.6 3.556 4.8v11.556h7.111v-12.267c0.178-2.667-0.711-5.333-2.311-7.289-1.6-1.6-3.733-2.489-5.867-2.311-2.667-0.178-5.156 1.244-6.4 3.556v-3.2h-7.111c0 1.956 0 21.333 0 21.511h7.111v-12.089c0-0.533 0-1.244 0.178-1.778 0.711-1.422 2.133-2.489 3.733-2.489z"></path>
      <path d="M8.799 10.41h-7.111v21.511h7.111v-21.511z"></path>
      <path d="M5.243 0.098c-2.133-0.178-3.911 1.244-4.089 3.378-0.178 1.956 1.244 3.911 3.378 4.089 0.178 0 0.356 0 0.533 0 2.133 0.178 3.911-1.244 4.089-3.378s-1.067-3.911-3.2-4.089c-0.178 0-0.533 0-0.711 0z"></path>
    </symbol>
    <symbol id="icon-youtob" viewBox="0 0 44 32">
      <path d="M41.798 6.202c-0.4-1.8-1.8-3.2-3.6-3.6-3.2-1-16.2-1-16.2-1s-12.8 0-16 0.8c-1.8 0.6-3.2 2-3.8 3.8-0.8 3.2-0.8 9.8-0.8 9.8s0 6.8 0.8 10c0.4 1.8 1.8 3.2 3.6 3.6 3.2 0.8 16.2 0.8 16.2 0.8s12.8 0 16.2-0.8c1.8-0.4 3.2-1.8 3.6-3.6 0.8-3.2 0.8-10 0.8-10s0-6.6-0.8-9.8zM17.798 22.202v-12.4l10.8 6.2-10.8 6.2z"></path>
    </symbol>
    <symbol id="icon-twitter" viewBox="0 0 40 32">
      <path d="M13.202 30.902c13.8 0 21.4-11.4 21.4-21.4 0-0.4 0-0.6 0-1 1.4-1 2.8-2.4 3.8-4-1.4 0.6-2.8 1-4.4 1.2 1.6-1 2.8-2.4 3.4-4.2-1.4 0.8-3 1.4-4.8 1.8-1.4-1.2-3.4-2.2-5.6-2.2-4.2 0-7.4 3.4-7.4 7.6 0 0.6 0 1.2 0.2 1.8-6.4-0.4-12-3.4-15.6-8-0.6 1-1 2.4-1 3.8 0 2.6 1.4 5 3.4 6.2-1.2 0-2.4-0.4-3.4-1 0 3.6 2.6 6.8 6 7.4-0.6 0.2-1.2 0.2-2 0.2-0.4 0-1 0-1.4-0.2 1 3 3.8 5.2 7 5.2-2.6 2-5.8 3.2-9.4 3.2-0.6 0-1.2 0-1.8-0.2 3.4 2.6 7.4 3.8 11.6 3.8z"></path>
    </symbol>
    <symbol id="icon-facebook" viewBox="0 0 19 32">
      <path d="M16.559 17.76l0.96-5.44h-5.28v-3.52c0-1.44 0.8-2.88 3.040-2.88h2.4v-4.8c0 0-2.24-0.32-4.16-0.32-4.32 0-7.2 2.56-7.2 7.36v4.16h-4.8v5.44h4.8v13.12c0.96 0.32 1.92 0.32 2.88 0.32s1.92 0 2.88-0.16v-13.12h4.48v-0.16z"></path>
    </symbol>
    <symbol id="icon-logo" viewBox="0 0 151 32">
      <path fill="#fff" style="fill: var(--color5, #fff)" d="M69.46 23.568h5.393v-5.207h4.865v-4.565h-4.865v-1.726h5.449v-4.736h-10.842v16.234z"></path>
      <path fill="#fff" style="fill: var(--color5, #fff)" d="M96.95 10.586c-1.541 0-2.782 0.528-3.681 1.484l-0.413-1.013h-3.681v12.511h5.121v-6.876c0-1.127 0.528-1.783 1.427-1.783 0.77 0 1.184 0.599 1.184 1.655v7.047h5.093v-7.703c0-3.181-2.083-5.321-5.050-5.321z"></path>
      <path fill="#fff" style="fill: var(--color5, #fff)" d="M85.109 7.333h-1.198v3.738h-1.955v12.497h5.107v-12.497h-1.955v-3.738z"></path>
      <path fill="#fff" style="fill: var(--color5, #fff)" d="M85.095 24.994h-1.184v2.311h1.184v-2.311z"></path>
      <path fill="#52bf66" style="fill: var(--color6, #52bf66)" d="M19.373 12.312l-0.713-1.241h-3.609v12.511h5.093v-6.762c0-0.656 0.528-1.184 1.184-1.184h2.368v-4.622h-1.070c-1.355 0-2.354 0.342-3.253 1.298z"></path>
      <path fill="#52bf66" style="fill: var(--color6, #52bf66)" d="M47.947 10.586c-1.541 0-2.91 0.656-3.852 1.712-0.827-1.070-2.069-1.712-3.552-1.712-1.427 0-2.668 0.599-3.552 1.598l-0.471-1.127h-3.609v12.511h5.093v-7.047c0-1.070 0.414-1.712 1.184-1.712 0.656 0 1.013 0.528 1.013 1.37v7.404h4.979v-7.062c0-1.127 0.414-1.712 1.184-1.712 0.656 0 1.013 0.414 1.013 1.37v7.404h5.093v-7.889c-0.086-2.967-1.74-5.107-4.522-5.107z"></path>
      <path fill="#52bf66" style="fill: var(--color6, #52bf66)" d="M67.976 17.105c0-3.795-2.91-6.519-7.119-6.519-4.151 0-7.047 2.782-7.047 6.691s2.967 6.762 7.047 6.762c3.324 0 5.992-1.783 6.819-4.793h-4.865c-0.357 0.656-1.127 0.942-2.011 0.942-1.127 0-1.897-0.599-2.197-1.84h9.187c0.129-0.399 0.185-0.813 0.185-1.241zM58.675 15.993c0.3-1.070 1.070-1.655 2.14-1.655 1.184 0 1.954 0.599 2.197 1.655h-4.337z"></path>
      <path fill="#52bf66" style="fill: var(--color6, #52bf66)" d="M27.618 11.071h-1.954v12.497h5.093v-12.497h-3.138z"></path>
      <path fill="#52bf66" style="fill: var(--color6, #52bf66)" d="M7.589 7.333h-7.589v16.234h5.335v-3.909h2.254c3.609 0 6.22-2.554 6.22-6.22s-2.668-6.106-6.22-6.106zM6.163 16.406l-3.138-2.625 1.369-1.641 1.498 1.255 2.425-2.896 1.641 1.37-3.795 4.536z"></path>
      <path fill="#52bf66" style="fill: var(--color6, #52bf66)" d="M30.814 7.333h-5.278v2.425h5.278v-2.425z"></path>
    </symbol>
    <symbol id="icon-mastercard" viewBox="0 0 41 32">
      <path fill="#b1b1b1" style="fill: var(--color1, #b1b1b1)" d="M38.843 30.059v1.667h-0.701v-0.408c-0.251 0.324-0.642 0.507-1.051 0.492-0.968 0-1.752-0.787-1.752-1.758s0.784-1.758 1.752-1.758c0.409-0.015 0.8 0.168 1.051 0.492v-1.758h0.701v3.031zM17.116 28.378v-1.020h-0.736v1.020h-0.666v0.668h0.68v1.547c0 0.781 0.301 1.245 1.163 1.245 0.322 0.001 0.638-0.089 0.911-0.26l-0.21-0.626c-0.195 0.117-0.417 0.182-0.645 0.19-0.35 0-0.483-0.225-0.483-0.563v-1.533h1.191l-0.007-0.668h-1.198zM7.427 29.63c0.025-0.359-0.106-0.711-0.358-0.967s-0.602-0.39-0.96-0.369c-0.472-0.031-0.923 0.198-1.177 0.598-0.232-0.388-0.657-0.617-1.107-0.598-0.392-0.020-0.765 0.17-0.981 0.499v-0.415h-0.729v3.362h0.736v-1.85c-0.032-0.233 0.042-0.468 0.2-0.64s0.386-0.265 0.62-0.253c0.484 0 0.729 0.317 0.729 0.886v1.871h0.736v-1.864c-0.030-0.233 0.044-0.467 0.202-0.639s0.385-0.266 0.618-0.254c0.498 0 0.736 0.317 0.736 0.886v1.871l0.736-0.014v-2.11zM24.532 28.293l-0.014-0.014c0.177 0.001 0.352 0.032 0.519 0.091l-0.224 0.703c-0.145-0.058-0.3-0.087-0.456-0.084-0.463 0-0.701 0.309-0.701 0.865v1.885h-0.729v-3.362h0.722v0.408c0.182-0.314 0.521-0.503 0.883-0.492zM13.767 28.293c-0.848 0-1.402 0.408-1.402 1.076 0 0.549 0.406 0.886 1.156 0.992l0.35 0.049c0.399 0.056 0.589 0.162 0.589 0.352 0 0.26-0.266 0.408-0.764 0.408-0.4 0.012-0.793-0.112-1.114-0.352l-0.35 0.57c0.425 0.297 0.933 0.45 1.451 0.436 0.967 0 1.528-0.457 1.528-1.097s-0.441-0.9-1.17-1.006l-0.35-0.049c-0.315-0.042-0.568-0.105-0.568-0.331s0.238-0.394 0.638-0.394c0.369 0.004 0.731 0.104 1.051 0.288l0.322-0.591c-0.413-0.246-0.887-0.368-1.367-0.352zM34.655 28.293l-0.014-0.014c0.177 0.001 0.352 0.032 0.519 0.091l-0.224 0.703c-0.145-0.058-0.3-0.087-0.456-0.084-0.462 0-0.701 0.309-0.701 0.865v1.885h-0.729v-3.362h0.722v0.408c0.182-0.314 0.521-0.503 0.883-0.492zM25.77 31.327c0.34 0.335 0.805 0.51 1.281 0.483 0.438 0.022 0.868-0.121 1.205-0.401l-0.35-0.591c-0.252 0.193-0.559 0.299-0.876 0.302-0.559-0.045-0.989-0.514-0.989-1.076s0.43-1.031 0.989-1.076c0.317 0.004 0.624 0.11 0.876 0.302l0.35-0.591c-0.338-0.28-0.768-0.423-1.205-0.401-0.476-0.027-0.941 0.148-1.281 0.483s-0.524 0.798-0.506 1.275v0.014c-0.018 0.478 0.166 0.941 0.506 1.275zM32.090 30.052v1.674h-0.729v-0.408c-0.251 0.324-0.642 0.507-1.051 0.492-0.968 0-1.752-0.787-1.752-1.758s0.785-1.758 1.752-1.758c0.409-0.015 0.8 0.168 1.051 0.492v-0.408h0.729v1.674zM30.427 29.096c-0.55-0.021-1.017 0.404-1.049 0.956-0.019 0.281 0.081 0.557 0.273 0.761s0.462 0.319 0.743 0.315c0.551-0.003 0.998-0.447 1.007-1s-0.424-1.011-0.975-1.032zM20.582 28.293l0.011 0.007c0.939 0 1.591 0.703 1.591 1.758v0.281h-2.488c0.057 0.501 0.501 0.866 1.002 0.823 0.355-0.005 0.698-0.129 0.974-0.352l0.35 0.541c-0.391 0.32-0.887 0.483-1.391 0.457-0.968 0.014-1.763-0.763-1.777-1.734s0.76-1.769 1.728-1.783zM21.175 29.179c-0.159-0.153-0.372-0.236-0.592-0.232h-0.014c-0.468-0.016-0.864 0.346-0.89 0.816h1.752c-0.005-0.221-0.096-0.431-0.256-0.584zM40.192 31.275c0.040 0.016 0.077 0.040 0.109 0.070s0.056 0.066 0.074 0.105c0.036 0.083 0.036 0.177 0 0.26-0.018 0.039-0.043 0.075-0.074 0.105s-0.068 0.054-0.109 0.070c-0.042 0.019-0.087 0.028-0.133 0.028-0.136-0.001-0.258-0.081-0.315-0.204-0.035-0.083-0.035-0.177 0-0.26 0.018-0.039 0.043-0.075 0.074-0.105s0.068-0.054 0.109-0.070c0.046-0.018 0.095-0.027 0.144-0.025h-0.002c0.043 0.001 0.085 0.009 0.125 0.025zM40.062 31.845c0.034-0 0.068-0.007 0.099-0.021s0.057-0.033 0.081-0.056c0.091-0.099 0.091-0.252 0-0.352-0.023-0.024-0.050-0.043-0.081-0.056-0.032-0.014-0.067-0.021-0.102-0.021s-0.069 0.007-0.102 0.021c-0.032 0.013-0.060 0.032-0.084 0.056-0.091 0.099-0.091 0.252 0 0.352 0.024 0.024 0.053 0.043 0.084 0.056 0.035 0.015 0.074 0.023 0.112 0.021h-0.008zM40.171 31.455c0.022 0.018 0.033 0.046 0.032 0.074 0.001 0.024-0.008 0.047-0.025 0.063-0.020 0.019-0.046 0.030-0.074 0.032l0.102 0.116h-0.081l-0.095-0.116h-0.032v0.116h-0.066v-0.309l0.147-0.003c0.033-0.002 0.065 0.008 0.091 0.028zM40.003 31.486v0.084h0.077c0.014 0.004 0.028 0.004 0.042 0 0.005-0.010 0.005-0.022 0-0.032 0.005-0.010 0.005-0.022 0-0.032-0.014-0.004-0.028-0.004-0.042 0l-0.077-0.021zM37.197 29.103c-0.55-0.021-1.017 0.404-1.049 0.956-0.019 0.281 0.081 0.557 0.273 0.761s0.462 0.319 0.743 0.315c0.551-0.003 0.998-0.447 1.007-1s-0.424-1.011-0.975-1.032zM11.538 30.059v1.667h-0.729v-0.408c-0.251 0.324-0.642 0.507-1.051 0.492-0.968 0-1.752-0.787-1.752-1.758s0.784-1.758 1.752-1.758c0.409-0.015 0.8 0.168 1.051 0.492v-0.408h0.729v1.681zM9.874 29.103c-0.55-0.021-1.017 0.404-1.049 0.956h-0.007c-0.019 0.282 0.081 0.559 0.276 0.764s0.466 0.318 0.747 0.312c0.551-0.003 0.998-0.447 1.007-1s-0.424-1.011-0.975-1.032z"></path>
      <path fill="#9e9e9e" style="fill: var(--color2, #9e9e9e)" d="M14.891 2.76h11.039v19.907h-11.039v-19.907z"></path>
      <path fill="#818181" style="fill: var(--color3, #818181)" d="M15.592 12.716c-0.004-3.885 1.773-7.556 4.818-9.955-5.172-4.079-12.6-3.485-17.063 1.365s-4.463 12.327 0 17.177c4.463 4.85 11.891 5.444 17.063 1.365-3.045-2.398-4.821-6.068-4.818-9.952z"></path>
      <path fill="#b1b1b1" style="fill: var(--color1, #b1b1b1)" d="M40.823 12.715c-0 4.847-2.758 9.268-7.102 11.386s-9.513 1.561-13.31-1.435c3.043-2.4 4.82-6.069 4.82-9.953s-1.777-7.553-4.82-9.953c3.797-2.996 8.965-3.553 13.31-1.435s7.102 6.539 7.102 11.386v0.004z"></path>
      <path fill="#b1b1b1" style="fill: var(--color1, #b1b1b1)" d="M39.617 20.235v0.823h-0.074v-0.823h-0.179v-0.17h0.417v0.17h-0.165zM40.427 20.064v0.993l-0.074 0.007v-0.752l-0.137 0.645h-0.095l-0.137-0.645v0.745h-0.091v-0.993h0.112l0.147 0.709 0.147-0.709h0.126z"></path>
    </symbol>
    <symbol id="icon-mc_secure" viewBox="0 0 89 32">
      <path fill="#878585" style="fill: var(--color7, #878585)" d="M83.077 12.236c0-1.037 0.839-1.882 1.846-1.882 1.035 0 1.846 0.845 1.846 1.882s-0.811 1.882-1.846 1.882c-1.007 0.027-1.846-0.818-1.846-1.882zM84.923 13.708c0.783 0 1.399-0.655 1.399-1.445s-0.643-1.446-1.399-1.446c-0.784 0-1.399 0.655-1.399 1.446s0.615 1.445 1.399 1.445zM84.671 13.081h-0.391v-1.664h0.699c0.14 0 0.308 0 0.42 0.081 0.14 0.082 0.196 0.246 0.196 0.409 0 0.191-0.112 0.355-0.28 0.409l0.308 0.736h-0.42l-0.251-0.655h-0.28v0.682zM84.671 12.154h0.224c0.084 0 0.168 0 0.224-0.027s0.083-0.11 0.083-0.191c0-0.054-0.028-0.136-0.083-0.163s-0.168-0.028-0.224-0.028h-0.196l-0.028 0.409z"></path>
      <path fill="#878585" style="fill: var(--color7, #878585)" d="M59.077 0.701l-0.449 2.954c-0.973-0.526-1.697-0.726-2.47-0.726-2.046 0-3.493 2.103-3.493 5.082 0 2.052 0.973 3.304 2.57 3.304 0.674 0 1.422-0.225 2.345-0.701l-0.474 3.104c-1.023 0.301-1.672 0.401-2.445 0.401-2.969 0-4.815-2.253-4.815-5.857 0-4.856 2.544-8.26 6.212-8.26 0.474 0 0.898 0.050 1.248 0.15l1.147 0.301c0.3 0.125 0.375 0.15 0.624 0.25z"></path>
      <path fill="#878585" style="fill: var(--color7, #878585)" d="M49.748 2.85c-0.073-0.025-0.171-0.025-0.269-0.025-0.881 0-1.395 0.481-2.227 1.823l0.245-1.697h-2.448l-1.664 11.168h2.717c0.979-6.837 1.223-8.002 2.521-8.002 0.073 0 0.098 0 0.196 0 0.245-1.342 0.563-2.33 1.028-3.241l-0.098-0.025z"></path>
      <path fill="#878585" style="fill: var(--color7, #878585)" d="M33.775 14.675c-0.766 0.255-1.378 0.383-2.017 0.383-1.429 0-2.22-0.869-2.22-2.477 0-0.307 0.025-0.664 0.076-1.021l0.179-1.098 0.128-0.894 1.225-7.686h2.808l-0.332 1.66h1.455l-0.408 2.732-1.43-0-0.74 4.699c-0.025 0.204-0.051 0.357-0.051 0.459 0 0.587 0.306 0.843 0.97 0.843 0.332 0 0.561-0.025 0.765-0.102l-0.408 2.502z"></path>
      <path fill="#878585" style="fill: var(--color7, #878585)" d="M23.146 6.499c0 1.381 0.63 2.318 2.034 3.033 1.065 0.542 1.259 0.715 1.259 1.208 0 0.666-0.484 0.986-1.525 0.986-0.799 0-1.525-0.123-2.397-0.444l-0.363 2.515 0.121 0.024 0.484 0.099c0.169 0.024 0.387 0.073 0.702 0.098 0.63 0.049 1.138 0.099 1.477 0.099 2.809 0 4.116-1.159 4.116-3.625 0-1.48-0.533-2.367-1.889-3.033-1.113-0.543-1.235-0.666-1.235-1.184 0-0.592 0.436-0.887 1.307-0.887 0.533 0 1.235 0.074 1.913 0.173l0.387-2.515c-0.702-0.124-1.744-0.222-2.349-0.222-3.026 0-4.068 1.652-4.043 3.674z"></path>
      <path fill="#878585" style="fill: var(--color7, #878585)" d="M81.065 13.964h-2.544l0.121-1.106c-0.727 0.874-1.502 1.26-2.472 1.26-1.963 0-3.247-1.877-3.247-4.706 0-3.78 1.987-6.969 4.362-6.969 1.042 0 1.817 0.488 2.568 1.542l0.582-3.986h2.642l-2.011 13.964zM77.116 11.315c1.26 0 2.132-1.569 2.132-3.831 0-1.44-0.509-2.237-1.43-2.237-1.212 0-2.084 1.595-2.084 3.806 0 1.491 0.46 2.263 1.381 2.263z"></path>
      <path fill="#878585" style="fill: var(--color7, #878585)" d="M42.413 13.678c-0.923 0.294-1.798 0.441-2.769 0.441-2.988 0-4.567-1.666-4.567-4.851 0-3.724 1.992-6.443 4.688-6.443 2.21 0 3.62 1.543 3.62 3.944 0 0.784-0.098 1.568-0.34 2.671h-5.344c-0.024 0.171-0.024 0.245-0.024 0.343 0 1.274 0.802 1.911 2.356 1.911 0.947 0 1.822-0.221 2.793-0.686l-0.413 2.67zM40.907 7.234c0.024-0.221 0.024-0.416 0.024-0.539 0-0.882-0.461-1.397-1.263-1.397-0.85 0-1.457 0.686-1.7 1.936h2.939z"></path>
      <path fill="#878585" style="fill: var(--color7, #878585)" d="M10.822 14.118h-2.687l1.539-10.862-3.469 10.862h-1.833l-0.22-10.784-1.637 10.784h-2.516l2.101-14.118h3.884l0.098 8.752 2.638-8.752h4.202l-2.101 14.118z"></path>
      <path fill="#878585" style="fill: var(--color7, #878585)" d="M18.342 9.112c-0.286-0.025-0.406-0.049-0.597-0.049-1.504 0-2.244 0.567-2.244 1.652 0 0.666 0.382 1.11 0.955 1.11 1.050 0 1.838-1.11 1.886-2.713zM20.252 13.946h-2.196l0.047-1.135c-0.668 0.912-1.552 1.307-2.769 1.307-1.433 0-2.411-1.208-2.411-2.959 0-2.663 1.719-4.192 4.631-4.192 0.31 0 0.692 0.025 1.075 0.074 0.072-0.37 0.095-0.518 0.095-0.715 0-0.715-0.454-0.986-1.695-0.986-0.74 0-1.599 0.124-2.196 0.321l-0.335 0.123-0.238 0.074 0.358-2.441c1.313-0.419 2.196-0.592 3.151-0.592 2.268 0 3.462 1.109 3.462 3.181 0 0.543-0.048 0.937-0.215 2.17l-0.525 3.872-0.095 0.69-0.072 0.543-0.048 0.394-0.024 0.272z"></path>
      <path fill="#878585" style="fill: var(--color7, #878585)" d="M63.604 9.123c-0.264-0.024-0.408-0.049-0.6-0.049-1.513 0-2.281 0.566-2.281 1.649 0 0.664 0.384 1.107 0.961 1.107 1.080 0 1.873-1.107 1.92-2.707zM65.525 13.946h-2.209l0.048-1.132c-0.672 0.91-1.561 1.304-2.785 1.304-1.441 0-2.425-1.206-2.425-2.953 0-2.657 1.729-4.183 4.658-4.183 0.288 0 0.696 0.024 1.080 0.074 0.072-0.369 0.096-0.517 0.096-0.714 0-0.714-0.456-0.984-1.705-0.984-0.744 0-1.609 0.123-2.209 0.32l-0.384 0.098-0.24 0.074 0.361-2.436c1.32-0.418 2.209-0.591 3.169-0.591 2.281 0 3.481 1.107 3.481 3.174 0 0.541-0.048 0.935-0.216 2.165l-0.552 3.838-0.072 0.689-0.072 0.542-0.048 0.369 0.024 0.345z"></path>
      <path fill="#878585" style="fill: var(--color7, #878585)" d="M73.748 2.85c-0.073-0.025-0.171-0.025-0.269-0.025-0.881 0-1.395 0.481-2.228 1.823l0.245-1.697h-2.447l-1.664 11.168h2.717c0.979-6.837 1.223-8.002 2.521-8.002 0.073 0 0.073 0 0.196 0 0.244-1.342 0.587-2.33 1.028-3.241l-0.098-0.025z"></path>
      <path fill="#b1b1b1" style="fill: var(--color1, #b1b1b1)" d="M61.773 25.522c0 2.445-0.808 3.887-2.086 3.887-0.939 0.024-1.486-0.954-1.486-2.396 0-1.711 0.834-3.667 2.138-3.667 1.069 0 1.434 1.051 1.434 2.175zM64.615 25.547c0-2.714-1.434-4.84-4.12-4.84-3.103 0-5.11 2.567-5.11 6.356 0 2.713 1.199 4.938 4.12 4.938 2.947 0 5.111-1.956 5.111-6.454z"></path>
      <path fill="#b1b1b1" style="fill: var(--color1, #b1b1b1)" d="M56.308 18.583l-0.407 2.954c-0.886-0.526-1.508-0.726-2.203-0.726-1.843 0-3.136 2.103-3.136 5.081 0 2.052 0.862 3.304 2.298 3.304 0.623 0 1.293-0.225 2.107-0.701l-0.431 3.104c-0.91 0.3-1.508 0.4-2.203 0.4-2.657 0-4.333-2.253-4.333-5.857 0-4.856 2.298-8.26 5.578-8.26 0.431 0 0.79 0.050 1.101 0.15l1.005 0.301c0.335 0.1 0.407 0.125 0.623 0.25z"></path>
      <path fill="#b1b1b1" style="fill: var(--color1, #b1b1b1)" d="M39.587 20.732c-0.079-0.025-0.184-0.025-0.289-0.025-0.893 0-1.392 0.481-2.233 1.823l0.263-1.697h-2.443l-1.655 11.168h2.706c0.972-6.837 1.234-8.002 2.521-8.002 0.079 0 0.079 0 0.21 0.025 0.236-1.342 0.578-2.33 1.024-3.241l-0.105-0.051z"></path>
      <path fill="#b1b1b1" style="fill: var(--color1, #b1b1b1)" d="M73.672 31.845h-2.538l0.129-1.108c-0.725 0.876-1.502 1.263-2.487 1.263-1.943 0-3.238-1.881-3.238-4.714 0-3.787 1.995-6.982 4.352-6.982 1.036 0 1.839 0.49 2.564 1.571l0.596-3.993h2.642l-2.020 13.963zM69.709 29.166c1.269 0 2.124-1.571 2.124-3.838 0-1.442-0.492-2.215-1.424-2.215-1.217 0-2.072 1.571-2.072 3.812 0 1.495 0.466 2.241 1.373 2.241z"></path>
      <path fill="#b1b1b1" style="fill: var(--color1, #b1b1b1)" d="M15.626 31.559c-0.911 0.294-1.797 0.441-2.76 0.441-2.996 0-4.558-1.666-4.558-4.851 0-3.699 2.005-6.443 4.688-6.443 2.214 0 3.62 1.519 3.62 3.945 0 0.784-0.104 1.568-0.339 2.67h-5.339c-0.026 0.171-0.026 0.245-0.026 0.343 0 1.249 0.808 1.887 2.37 1.887 0.963 0 1.823-0.22 2.786-0.686l-0.443 2.695zM14.115 25.116c0-0.22 0.026-0.416 0.026-0.539 0-0.882-0.469-1.396-1.276-1.396-0.86 0-1.459 0.686-1.719 1.935h2.969z"></path>
      <path fill="#b1b1b1" style="fill: var(--color1, #b1b1b1)" d="M46.090 31.559c-0.908 0.294-1.791 0.441-2.752 0.441-3.012 0-4.569-1.666-4.569-4.851 0-3.699 1.999-6.443 4.673-6.443 2.207 0 3.635 1.519 3.635 3.945 0 0.784-0.104 1.568-0.338 2.67h-5.322c-0.026 0.171-0.026 0.245-0.026 0.343 0 1.249 0.805 1.887 2.363 1.887 0.961 0 1.817-0.22 2.777-0.686l-0.441 2.695zM44.584 25.116c0.026-0.22 0.026-0.416 0.026-0.539 0-0.882-0.467-1.396-1.272-1.396-0.857 0-1.454 0.686-1.714 1.935h2.96z"></path>
      <path fill="#b1b1b1" style="fill: var(--color1, #b1b1b1)" d="M83.014 31.559c-0.935 0.294-1.817 0.441-2.752 0.441-2.985 0-4.569-1.666-4.569-4.851 0-3.699 1.999-6.443 4.699-6.443 2.207 0 3.609 1.519 3.609 3.945 0 0.784-0.104 1.568-0.338 2.67h-5.322c-0.026 0.171-0.026 0.245-0.026 0.343 0 1.249 0.805 1.887 2.362 1.887 0.961 0 1.817-0.22 2.778-0.686l-0.441 2.695zM81.507 25.116c0-0.22 0.026-0.416 0.026-0.539 0-0.882-0.468-1.396-1.272-1.396-0.857 0-1.454 0.686-1.714 1.935h2.96z"></path>
      <path fill="#b1b1b1" style="fill: var(--color1, #b1b1b1)" d="M7.663 21.19c-0.478-0.345-1.146-0.617-2.053-0.617-1.003 0-1.791 0.222-1.791 1.308 0 1.926 3.629 1.21 3.629 5.356 0 3.776-2.387 4.763-4.56 4.763-0.955 0-2.077-0.321-2.889-0.716l0.597-2.764c0.502 0.469 1.48 0.79 2.316 0.79 0.788 0 1.982-0.222 1.982-1.629 0-2.196-3.629-1.382-3.629-5.232 0-3.529 2.124-4.566 4.178-4.566 1.146 0 2.244 0.173 2.864 0.617l-0.645 2.69z"></path>
      <path fill="#b1b1b1" style="fill: var(--color1, #b1b1b1)" d="M22.533 31.581c-0.523 0.247-1.243 0.42-2.288 0.42-2.237 0-3.63-2.22-3.63-4.932 0-3.551 2.014-6.362 4.973-6.362 0.647 0 1.641 0.271 2.412 0.715l-0.572 2.59c-0.547-0.37-1.119-0.592-1.715-0.592-1.368 0-2.362 1.258-2.362 3.477 0 1.283 0.721 2.343 1.84 2.343 0.671 0 1.143-0.148 1.715-0.468l-0.373 2.811z"></path>
      <path fill="#b1b1b1" style="fill: var(--color1, #b1b1b1)" d="M32.931 28.868c-0.125 0.961-0.249 1.895-0.324 2.881h-2.47l0.199-1.794h-0.025c-0.773 1.213-1.572 2.047-2.994 2.047-1.547 0-2.395-1.667-2.395-3.815 0-0.758 0.050-1.162 0.199-2.325l0.699-5.154h2.769l-0.748 5.179c-0.075 0.556-0.175 1.112-0.175 1.693 0 0.657 0.299 1.314 1.048 1.263 1.123 0 1.796-1.39 1.996-3.032l0.773-5.104h2.67l-1.223 8.161z"></path>
      <path fill="#b1b1b1" style="fill: var(--color1, #b1b1b1)" d="M85.165 31.058h-0.483v-1.544h-0.682v-0.338h1.846v0.338h-0.682v1.544z"></path>
      <path fill="#b1b1b1" style="fill: var(--color1, #b1b1b1)" d="M87.692 31.058h-0.379v-1.565l-0.355 1.565h-0.379l-0.355-1.565v1.565h-0.379v-1.882h0.591l0.332 1.48h0.023l0.331-1.48h0.568v1.882z"></path>
    </symbol>
    <symbol id="icon-neteller" viewBox="0 0 192 32">
      <path fill="#b1b1b1" style="fill: var(--color1, #b1b1b1)" d="M177.914 13.966c-1.084 0.737-2.654 1.096-4.803 1.096h-2.131l1.635-8.587h1.567c1.784 0 3.084 0.278 3.983 0.846 0.699 0.445 1.534 1.326 1.534 2.991-0.003 2.015-0.973 3.097-1.787 3.654h0.003zM50.799 24.746h-16.486l1.066-5.615h10.341l1.173-6.323h-10.243l0.987-5.555h16.463l-3.302 17.494h0.001zM186.794 2.432c-2.425-1.617-6.096-2.432-10.905-2.432h-12.597l-4.684 24.746h-16.502l1.060-5.615h9.941l1.177-6.305-9.936 0.014 1.064-5.589h10.239l1.363-7.249h-20.795l-4.446 23.471h-7.631l4.476-23.473h-10.871l-4.445 23.473h-7.433l4.479-23.473h-10.864l-4.69 24.746h-16.621l1.050-5.615h9.981l1.179-6.269-9.971-0.010 1.059-5.6h10.355l1.353-7.251h-64.799l-3.69 19.608-7.345-19.608h-11.277l-6.070 32h10.771l3.672-20.149 7.129 20.149h38.6l4.694-24.751h6.037l-4.694 24.751h101.567l2.946-15.624 4.762 15.624h10.777l-4.937-12.767 1.13-0.237c2.486-0.519 4.428-1.633 5.778-3.304 1.349-1.686 2.037-3.851 2.037-6.451 0-3.027-1.139-5.255-3.48-6.81l0.004 0.001z"></path>
    </symbol>
    <symbol id="icon-Polygon" viewBox="0 0 43 32">
      <path stroke-linejoin="miter" stroke-linecap="round" stroke-miterlimit="4" stroke-width="10.6667" d="M5.333 8l16 16 16-16"></path>
    </symbol>
    <symbol id="icon-skrill" viewBox="0 0 98 32">
      <path fill="#b1b1b1" style="fill: var(--color1, #b1b1b1)" d="M69.256 7.688c2.186 0 3.957-1.721 3.957-3.843 0-2.123-1.772-3.845-3.957-3.845-2.183 0-3.954 1.722-3.954 3.845 0 2.122 1.771 3.843 3.954 3.843zM38.903 9.873l-0 0.001c-0.294 0.747-1.605 4.071-4.528 7.51v-15.634l-8.282 1.591v28.338h8.282v-8.759c2.399 3.496 3.583 8.759 3.583 8.759h9.92c-0.981-3.964-5.274-11.273-5.274-11.273 3.852-4.746 5.545-9.803 5.814-10.641h-9.471c-0.011 0.026-0.025 0.063-0.044 0.11l-0 0zM49.536 19.362c0-6.429 3.766-9.663 11.184-9.894 0 0 1.338-0.050 2.129 0.113v6.397c-4.701 0.157-5.22 1.807-5.22 5.657v10.043h-8.093v-12.316zM12.202 12.884l-0.004-0c-1.017-0.065-3.359-0.215-3.359-2.267 0-2.479 3.381-2.479 4.65-2.479 2.23 0 5.118 0.64 7.181 1.24 0 0 1.15 0.394 2.13 0.798l0.091 0.024v-6.79l-0.125-0.036c-2.434-0.828-5.264-1.624-10.512-1.624-9.048 0-12.253 5.122-12.253 9.509 0 2.529 1.116 8.482 11.477 9.168l0.011 0.001c0.886 0.053 3.199 0.191 3.199 2.306 0 1.753-1.909 2.787-5.119 2.787-3.518 0-6.93-0.872-9.003-1.699v6.993c3.103 0.79 6.601 1.185 10.7 1.185 8.846 0 12.809-4.846 12.809-9.648 0-5.446-4.434-8.984-11.872-9.468zM73.271 31.678h-8.027v-21.89h8.027v21.89zM88.387 3.145v28.533h8.029v-29.928l-8.029 1.396zM84.693 1.75l-8.021 1.396v28.533h8.021v-29.928z"></path>
    </symbol>
    <symbol id="icon-ssl" viewBox="0 0 81 32">
      <path fill="#b1b1b1" style="fill: var(--color1, #b1b1b1)" d="M26.585 4.425c-0.219-0.221-0.438-0.295-0.731-0.295s-0.511 0.074-0.731 0.295l-11.326 11.282h-0.073c-0.073 0-0.073 0-0.073-0.074l-5.042-4.94c-0.512-0.516-1.315-0.516-1.9 0l-1.242 1.327c-0.511 0.516-0.511 1.401 0 1.917l7.307 7.373c0.219 0.222 0.585 0.369 0.95 0.369 0.146 0 0.219 0 0.365-0.073 0.219-0.074 0.438-0.147 0.585-0.369l13.519-13.641c0.365-0.442 0.365-1.032 0-1.475l-1.608-1.696z"></path>
      <path fill="#b1b1b1" style="fill: var(--color1, #b1b1b1)" d="M26.911 13.105c-0.151-0.074-0.378-0.074-0.529 0.074l-2.797 2.755c-0.227 0.149-0.302 0.298-0.302 0.447-0.756 2.383-1.965 4.616-3.553 6.627-1.587 1.861-3.553 3.425-5.745 4.542h-0.302c-3.704-1.936-6.652-5.138-8.315-8.935-0.68-1.638-1.134-3.276-1.436-4.989-0.151-0.893-0.302-4.542-0.378-6.552h0.076l1.058-0.149c3.175-0.372 6.274-1.34 9.147-2.904h0.076c2.192 1.117 4.536 2.010 6.955 2.532 0.302 0 0.529-0.074 0.756-0.223l2.041-2.010c0.151-0.223 0.151-0.521 0-0.67-0.076-0.074-0.151-0.074-0.227-0.149l-0.529-0.074c-3.024-0.67-5.972-1.713-8.769-3.127-0.076-0.074-0.227-0.074-0.378-0.074-0.076 0-0.227 0-0.302 0.074-3.629 1.861-7.484 3.127-11.566 3.574l-1.285 0.223c-0.378 0.074-0.605 0.372-0.605 0.745 0 2.606 0.302 7.148 0.454 8.339 0.378 1.936 0.907 3.872 1.663 5.808 3.251 7.818 9.827 11.616 11.339 12.211 0.076 0.075 0.227 0.075 0.378 0.075h0.076c0.151 0 0.227 0 0.378-0.075 2.041-0.968 3.855-2.234 5.518-3.723 4.006-3.648 6.652-8.488 7.408-13.849 0-0.223-0.151-0.447-0.302-0.521z"></path>
      <path fill="#b1b1b1" style="fill: var(--color1, #b1b1b1)" d="M46.761 10.932c0.075-1.848-0.598-3.623-1.941-4.88-1.417-1.257-3.283-1.922-5.224-1.922-1.493 0-2.985 0.222-4.327 0.813-1.194 0.444-2.313 1.183-3.135 2.218-0.746 0.961-1.193 2.070-1.193 3.253-0.149 2.662 1.418 4.732 4.851 6.285l2.985 1.182c1.418 0.666 2.015 1.553 1.716 2.736-0.15 0.813-0.597 1.479-1.269 1.922-0.82 0.517-1.716 0.739-2.686 0.739-2.538 0-3.731-1.257-3.582-3.697h-4.477c-0.075 1.256 0.224 2.514 0.896 3.623s1.641 2.069 2.836 2.662c1.343 0.665 2.761 0.961 4.254 0.961 1.492 0.074 2.91-0.222 4.253-0.739 1.195-0.444 2.239-1.184 3.060-2.218 0.746-0.961 1.119-2.144 1.194-3.327 0.223-2.662-1.194-4.732-4.254-6.211l-1.119-0.518-2.014-0.739c-1.717-0.665-2.463-1.553-2.239-2.662 0.149-0.813 0.597-1.553 1.343-1.996 0.821-0.518 1.716-0.739 2.686-0.665 0.821-0.074 1.716 0.222 2.313 0.813 0.522 0.665 0.746 1.479 0.598 2.292l4.477 0.074z"></path>
      <path fill="#b1b1b1" style="fill: var(--color1, #b1b1b1)" d="M66.078 10.984c0.075-1.842-0.599-3.611-1.949-4.938-1.423-1.253-3.296-1.916-5.245-1.916-1.499 0-2.997 0.221-4.345 0.811-1.199 0.442-2.323 1.179-3.148 2.211-0.749 0.958-1.198 2.063-1.198 3.243-0.15 2.653 1.499 4.717 4.945 6.264l2.997 1.179c1.424 0.663 2.024 1.547 1.724 2.727-0.15 0.811-0.6 1.474-1.274 1.916-0.825 0.516-1.723 0.737-2.698 0.737-2.472 0-3.671-1.254-3.596-3.611h-4.496c-0.075 1.252 0.224 2.506 0.899 3.611s1.649 2.063 2.847 2.653c1.348 0.663 2.772 0.958 4.271 0.958 1.499 0.074 2.922-0.221 4.271-0.737 1.199-0.443 2.248-1.18 3.072-2.211 0.749-0.958 1.199-2.137 1.274-3.391 0.225-2.652-1.199-4.716-4.196-6.19l-1.349-0.516-2.022-0.737c-1.724-0.663-2.473-1.548-2.248-2.653 0.149-0.811 0.599-1.548 1.349-1.99 0.824-0.516 1.723-0.737 2.698-0.663 0.824-0.074 1.723 0.221 2.323 0.884 0.524 0.663 0.749 1.474 0.599 2.285l4.496 0.074z"></path>
      <path fill="#b1b1b1" style="fill: var(--color1, #b1b1b1)" d="M71.12 23.118l3.139-18.988h-4.379l-3.796 22.71h13.649l0.584-3.722h-9.197z"></path>
    </symbol>
    <symbol id="icon-phone" viewBox="0 0 24 32">
      <path d="M19.958 0h-15.967c-2.195 0-3.992 1.8-3.992 4v24c0 2.2 1.796 4 3.992 4h15.967c2.195 0 3.992-1.8 3.992-4v-24c0-2.2-1.796-4-3.992-4zM19.958 28h-15.967v-24h15.967v24zM11.975 26c1.197 0 1.996-0.8 1.996-2s-0.798-2-1.996-2c-1.197 0-1.996 0.8-1.996 2s0.798 2 1.996 2z"></path>
    </symbol>
    <symbol id="icon-email" viewBox="0 0 43 32">
      <path d="M37.256 0h-31.933c-2.927 0-5.322 2.4-5.322 5.333v21.333c0 2.933 2.395 5.333 5.322 5.333h31.933c2.927 0 5.322-2.4 5.322-5.333v-21.333c0-2.933-2.395-5.333-5.322-5.333zM37.256 26.667h-31.933v-21.333h31.933v21.333zM19.692 20.8c0.532 0.267 1.064 0.533 1.597 0.533s1.065-0.267 1.597-0.533l10.644-8c1.065-0.8 1.331-2.667 0.532-3.733s-2.661-1.333-3.726-0.533l-9.048 6.667-9.048-6.667c-1.064-0.8-2.927-0.533-3.726 0.533s-0.532 2.933 0.532 3.733l10.644 8z"></path>
    </symbol>
    <symbol id="icon-app-store" viewBox="0 0 26 32">
      <path d="M12.884 9.347c-1.263 0-3.116-1.432-5.137-1.347-2.611 0-5.053 1.516-6.4 3.874-2.779 4.8-0.674 11.789 1.937 15.663 1.263 1.937 2.863 4.042 4.884 4.042 1.937-0.084 2.695-1.263 5.137-1.263 2.358 0 3.032 1.263 5.137 1.263s3.453-1.937 4.8-3.789c1.516-2.189 2.105-4.295 2.189-4.463-0.084 0-4.126-1.6-4.211-6.316 0-3.958 3.2-5.811 3.368-5.895-1.853-2.695-4.716-3.032-5.726-3.116-2.611-0.253-4.8 1.347-5.979 1.347zM17.263 5.389c1.095-1.347 1.853-3.116 1.6-4.968-1.6 0.084-3.453 1.011-4.547 2.358-1.011 1.179-1.853 3.032-1.684 4.8 1.768 0.168 3.537-0.842 4.632-2.189z"></path>
    </symbol>
    <symbol id="icon-sms" viewBox="0 0 32 32">
      <path d="M27.768 9.938h-1.983v3.975h1.983v13.913l-4.76-3.975h-11.107v-3.975h-0.992l-2.975 2.385v1.59c0 0.397 0 0.596 0 0.795 0.397 1.789 1.983 3.18 3.967 3.18h9.719l3.769 2.981c0.793 0.596 1.587 0.994 2.579 0.994 0.595 0 1.19-0.199 1.785-0.398 1.388-0.596 2.182-1.988 2.182-3.578v-13.913c-0.198-2.186-1.983-3.975-4.165-3.975zM10.116 17.889h9.719c2.182 0 3.967-1.789 3.967-3.975v-9.938c0-2.186-1.785-3.975-3.967-3.975h-15.868c-2.182 0-3.967 1.789-3.967 3.975v13.913c0 1.59 0.992 2.981 2.38 3.578 0.595 0.199 1.19 0.397 1.587 0.397 0.992 0 1.785-0.397 2.578-0.994l1.388-1.193 2.182-1.789zM3.967 17.889v-13.913h15.868v9.938h-11.107l-0.793 0.596-3.967 3.379z"></path>
    </symbol>
    <symbol id="icon-visa" viewBox="0 0 96 32">
      <path fill="#b1b1b1" style="fill: var(--color1, #b1b1b1)" d="M46.899 0.566l-6.329 30.95h-7.655l6.332-30.95h7.652zM79.1 20.55l4.029-11.621 2.319 11.621h-6.348zM87.641 31.516h7.079l-6.179-30.95h-6.533c-1.469 0-2.708 0.893-3.258 2.27l-11.484 28.68h8.035l1.597-4.624h9.819l0.925 4.624zM67.663 21.41c0.034-8.168-10.797-8.619-10.723-12.268 0.024-1.11 1.034-2.29 3.246-2.592 1.095-0.15 4.119-0.266 7.546 1.384l1.345-6.563c-1.843-0.7-4.212-1.372-7.161-1.372-7.564 0-12.89 4.207-12.932 10.23-0.050 4.458 3.8 6.942 6.701 8.424 2.981 1.517 3.98 2.49 3.97 3.846-0.022 2.078-2.379 2.993-4.581 3.029-3.848 0.063-6.081-1.088-7.861-1.956l-1.386 6.782c1.787 0.859 5.088 1.607 8.511 1.644 8.041 0 13.3-4.153 13.325-10.59zM35.962 0.566l-12.401 30.95h-8.090l-6.102-24.7c-0.371-1.521-0.692-2.079-1.819-2.718-1.84-1.045-4.878-2.025-7.55-2.634l0.18-0.897h13.024c1.659 0 3.153 1.155 3.529 3.155l3.223 17.91 7.966-21.065h8.039z"></path>
    </symbol>
    <symbol id="icon-visa_veri" viewBox="0 0 64 32">
      <path fill="#b1b1b1" style="fill: var(--color1, #b1b1b1)" d="M3.318 11.101l-3.318-10.449h1.419l1.585 5.148c0.436 1.409 0.814 2.681 1.085 3.906h0.031c0.287-1.211 0.709-2.527 1.161-3.892l1.721-5.161h1.402l-3.637 10.449h-1.449z"></path>
      <path fill="#b1b1b1" style="fill: var(--color1, #b1b1b1)" d="M13.579 6.462c0.017-0.869-0.348-2.22-1.846-2.22-1.347 0-1.937 1.273-2.044 2.22h3.89zM9.675 7.44c0.031 1.847 1.179 2.607 2.513 2.607 0.954 0 1.527-0.171 2.029-0.389l0.228 0.979c-0.471 0.217-1.271 0.466-2.438 0.466-2.257 0-3.603-1.522-3.603-3.788s1.302-4.049 3.434-4.049c2.393 0 3.030 2.158 3.030 3.537 0 0.279-0.032 0.496-0.047 0.637h-5.146z"></path>
      <path fill="#b1b1b1" style="fill: var(--color1, #b1b1b1)" d="M15.578 5.829c0-0.901-0.016-1.677-0.063-2.391h1.23l0.047 1.504h0.063c0.351-1.028 1.198-1.677 2.141-1.677 0.157 0 0.273 0.016 0.398 0.047v1.314c-0.144-0.032-0.286-0.048-0.479-0.048-0.989 0-1.69 0.744-1.882 1.788-0.033 0.191-0.066 0.413-0.066 0.651v4.084h-1.388v-5.273z"></path>
      <path fill="#b1b1b1" style="fill: var(--color1, #b1b1b1)" d="M20.236 11.101h1.567v-7.493h-1.567v7.493zM21.979 1.503c0.017 0.465-0.374 0.837-0.995 0.837-0.552 0-0.944-0.372-0.944-0.837 0-0.479 0.408-0.851 0.979-0.851 0.585 0 0.959 0.371 0.959 0.851z"></path>
      <path fill="#b1b1b1" style="fill: var(--color1, #b1b1b1)" d="M23.090 11.102v-6.422h-1.11v-1.031h1.11v-0.354c0-1.046 0.245-2.001 0.913-2.602 0.538-0.493 1.255-0.692 1.925-0.692 0.507 0 0.945 0.107 1.224 0.215l-0.195 1.046c-0.214-0.092-0.506-0.168-0.915-0.168-1.222 0-1.531 1.016-1.531 2.156v0.4h1.907v1.031h-1.907v6.422h-1.421z"></path>
      <path fill="#b1b1b1" style="fill: var(--color1, #b1b1b1)" d="M27.995 11.101h1.564v-7.493h-1.564v7.493zM29.736 1.503c0.020 0.465-0.375 0.837-0.997 0.837-0.549 0-0.942-0.372-0.942-0.837 0-0.479 0.41-0.851 0.979-0.851 0.585 0 0.96 0.371 0.96 0.851z"></path>
      <path fill="#b1b1b1" style="fill: var(--color1, #b1b1b1)" d="M35.561 6.462c0.014-0.869-0.349-2.22-1.847-2.22-1.346 0-1.937 1.273-2.045 2.22h3.892zM31.655 7.44c0.032 1.847 1.18 2.607 2.514 2.607 0.955 0 1.529-0.171 2.030-0.389l0.228 0.979c-0.47 0.217-1.275 0.466-2.438 0.466-2.257 0-3.604-1.522-3.604-3.788s1.303-4.049 3.435-4.049c2.394 0 3.030 2.158 3.030 3.537 0 0.279-0.030 0.496-0.047 0.637h-5.147z"></path>
      <path fill="#b1b1b1" style="fill: var(--color1, #b1b1b1)" d="M43.174 6.514c0-0.17-0.015-0.401-0.062-0.571-0.203-0.862-0.951-1.57-1.975-1.57-1.418 0-2.257 1.232-2.257 2.881 0 1.51 0.745 2.755 2.226 2.755 0.916 0 1.757-0.599 2.006-1.618 0.047-0.183 0.062-0.368 0.062-0.583v-1.294zM44.545 0v9.007c0 0.663 0.014 1.416 0.061 1.927h-1.228l-0.063-1.294h-0.032c-0.419 0.831-1.337 1.462-2.567 1.462-1.821 0-3.22-1.524-3.22-3.789-0.017-2.479 1.541-4.003 3.378-4.003 1.149 0 1.928 0.54 2.27 1.139h0.032v-4.45h1.371z"></path>
      <path fill="#b1b1b1" style="fill: var(--color1, #b1b1b1)" d="M51.179 7.946c0 0.168 0.031 0.338 0.063 0.492 0.261 0.939 1.044 1.586 2.030 1.586 1.416 0 2.261-1.155 2.261-2.864 0-1.492-0.769-2.772-2.214-2.772-0.922 0-1.784 0.631-2.063 1.663-0.032 0.154-0.077 0.338-0.077 0.553v1.341zM49.778 10.934c0.031-0.51 0.061-1.264 0.061-1.927v-9.007h1.34v4.681h0.031c0.477-0.831 1.338-1.371 2.539-1.371 1.847 0 3.153 1.541 3.14 3.803 0 2.664-1.679 3.989-3.34 3.989-1.078 0-1.939-0.415-2.493-1.4h-0.045l-0.064 1.232h-1.169z"></path>
      <path fill="#b1b1b1" style="fill: var(--color1, #b1b1b1)" d="M58.389 3.918l1.656 4.505c0.172 0.503 0.361 1.102 0.484 1.559h0.031c0.143-0.457 0.298-1.041 0.487-1.591l1.498-4.472h1.455l-2.064 5.433c-0.983 2.614-1.656 3.952-2.593 4.771-0.671 0.598-1.344 0.833-1.687 0.899l-0.344-1.167c0.344-0.11 0.796-0.331 1.203-0.678 0.375-0.299 0.843-0.833 1.157-1.543 0.062-0.142 0.109-0.25 0.109-0.33s-0.031-0.19-0.094-0.362l-2.797-7.023h1.501z"></path>
      <path fill="#b1b1b1" style="fill: var(--color1, #b1b1b1)" d="M22.956 16.326l-4.152 10.669-1.681-9.070c-0.193-1.012-0.972-1.598-1.838-1.598h-6.789l-0.092 0.453c1.392 0.312 2.975 0.805 3.935 1.332 0.587 0.328 0.755 0.611 0.944 1.381l3.185 12.507h4.219l6.465-15.673h-4.196z"></path>
      <path fill="#b1b1b1" style="fill: var(--color1, #b1b1b1)" d="M28.432 16.326l-3.22 15.673h3.896l3.215-15.673h-3.891z"></path>
      <path fill="#b1b1b1" style="fill: var(--color1, #b1b1b1)" d="M37.546 20.994c0.012-0.566 0.547-1.167 1.715-1.327 0.583-0.075 2.176-0.131 3.989 0.707l0.709-3.345c-0.971-0.357-2.227-0.703-3.782-0.703-4 0-6.808 2.15-6.835 5.225-0.022 2.269 2.010 3.538 3.54 4.295 1.577 0.771 2.107 1.266 2.097 1.964-0.007 1.059-1.257 1.523-2.417 1.54-2.035 0.032-3.214-0.552-4.157-0.993l-0.729 3.459c0.941 0.436 2.687 0.819 4.498 0.838 4.242 0 7.022-2.122 7.037-5.402 0.017-4.168-5.705-4.398-5.665-6.257z"></path>
      <path fill="#b1b1b1" style="fill: var(--color1, #b1b1b1)" d="M50.951 16.326c-0.763 0-1.404 0.452-1.69 1.151l-5.948 14.523h4.166l0.828-2.342h5.074l0.477 2.342h3.677l-3.198-15.673h-3.386zM49.445 26.449l2.108-5.886 1.186 5.886h-3.294z"></path>
    </symbol>
    <symbol id="icon-VPay" viewBox="0 0 29 32">
      <path fill="#b1b1b1" style="fill: var(--color1, #b1b1b1)" d="M0 0h29v32h-29v-32zM0.592 21.132h27.52v-20.226h-27.52v20.226z"></path>
      <path fill="#b1b1b1" style="fill: var(--color1, #b1b1b1)" d="M21.306 4.527l-5.405 13.283h-3.532l-2.66-10.603c-0.16-0.652-0.302-0.89-0.791-1.168-0.806-0.445-2.131-0.867-3.295-1.129l0.078-0.382h5.679c0.724 0 1.376 0.495 1.54 1.351l1.407 7.686 3.473-9.037h3.506z"></path>
      <path fill="#fff" style="fill: var(--color5, #fff)" d="M8.7 23.246c-0.706 0-1.224 0.053-1.598 0.124v5.913h1.035v-2.26c0.136 0.025 0.317 0.036 0.51 0.036 0.739 0 1.392-0.204 1.808-0.639 0.323-0.323 0.493-0.793 0.493-1.36 0-0.563-0.22-1.033-0.561-1.326-0.365-0.32-0.924-0.489-1.688-0.489zM8.648 26.208c-0.212 0-0.382-0.011-0.51-0.046v-2.026c0.111-0.027 0.317-0.055 0.603-0.055 0.724 0 1.165 0.356 1.165 1.023 0 0.702-0.477 1.105-1.258 1.105z"></path>
      <path fill="#fff" style="fill: var(--color5, #fff)" d="M12.915 29.284l0.494-1.712h1.818l0.519 1.712h1.122l-1.862-6.038h-1.334l-1.835 6.038h1.078zM14.598 25.253l0.45 1.487h-1.469l0.441-1.487c0.068-0.241 0.13-0.512 0.188-0.77 0.028-0.124 0.056-0.246 0.083-0.36h0.017c0.019 0.078 0.039 0.159 0.059 0.242 0.070 0.29 0.145 0.602 0.231 0.887z"></path>
      <path fill="#fff" style="fill: var(--color5, #fff)" d="M18.964 29.284v-2.519l-1.801-3.519h1.182l0.686 1.548c0.195 0.45 0.337 0.788 0.491 1.202h0.015c0.144-0.387 0.307-0.762 0.5-1.202l0.686-1.548h1.175l-1.895 3.494v2.544h-1.039z"></path>
    </symbol>
  </defs>
</svg>